<?xml version="1.0" standalone="no"?>
<!DOCTYPE svg PUBLIC "-//W3C//DTD SVG 20010904//EN"
 "http://www.w3.org/TR/2001/REC-SVG-20010904/DTD/svg10.dtd">
<svg version="1.0" xmlns="http://www.w3.org/2000/svg"
 width="28.000000pt" height="28.000000pt" viewBox="0 0 28.000000 28.000000"
 preserveAspectRatio="xMidYMid meet">

<g transform="translate(0.000000,28.000000) scale(0.100000,-0.100000)"
fill="#000000" stroke="none">
<path d="M40 195 c0 -49 7 -53 54 -35 47 17 27 -1 -26 -25 -29 -13 -47 -24
-40 -24 7 -1 12 -16 12 -41 l0 -40 63 1 62 0 -45 22 c-25 12 -47 23 -49 24 -2
1 13 15 32 32 40 36 67 85 60 112 -5 16 -15 19 -64 19 l-59 0 0 -45z"/>
<path d="M173 228 c2 -7 19 -50 37 -96 17 -45 33 -82 36 -82 2 0 4 43 4 95 l0
95 -41 0 c-29 0 -40 -4 -36 -12z"/>
</g>
</svg>
